<svg width="282" height="100" viewBox="0 0 282 100" fill="none" xmlns="http://www.w3.org/2000/svg">
<path d="M1.47822 66.9004C1.58673 66.8825 4.16558 66.476 7.96515 66.476C14.387 66.476 23.6625 67.6113 31.3756 73.0173C43.1758 81.2901 46.6136 96.3315 47.0784 98.6307C50.5199 92.3115 57.9816 75.1947 48.3118 59.4227C36.168 39.6145 1.60843 29.4275 1.60843 29.4275C1.60843 29.4275 -1.88551 48.8363 1.42577 66.9094L1.47822 66.9004Z" fill="#49A54C"/>
<path d="M43.5699 99.5403C43.5699 99.5403 40.7469 83.9777 29.2831 75.9395C22.2501 71.0098 13.6002 70.0554 7.96327 70.0554C4.8473 70.0554 2.65364 70.3473 2.16174 70.4171C3.31735 75.2662 5.02634 79.9147 7.49849 83.9473C12.1245 91.4949 18.7561 95.7871 25.1906 98.2116C29.7678 99.5689 34.2636 99.9181 37.6635 99.9181C41.0634 99.9181 43.5699 99.5403 43.5699 99.5403Z" fill="#49A54C"/>
<path fill-rule="evenodd" clip-rule="evenodd" d="M61.3743 78.8936V78.8811C61.3688 77.6455 61.3616 76.4154 61.3616 75.1709V67.6233C61.3616 66.368 61.3562 65.1128 61.3489 63.8665V63.8629C61.3435 62.613 61.3363 61.3685 61.3363 60.1258V52.6284C61.3363 51.2209 61.3272 49.8296 61.32 48.4454C61.3037 45.7093 61.2875 43.0036 61.3363 40.2747C61.3978 37.3416 60.4321 34.7756 58.3505 32.6214L58.3324 32.6035L58.3144 32.5856C57.8641 32.1397 57.4517 31.7082 57.1009 31.2784L57.0937 31.2695L57.0864 31.2605C57.0774 31.2498 57.0683 31.239 57.0611 31.2283C57.0665 31.2193 57.072 31.2104 57.0774 31.2014L57.081 31.1961L57.0846 31.1907C57.4029 30.6893 57.6904 30.2631 57.9943 29.8137C58.2276 29.4681 58.4699 29.11 58.743 28.691L58.7592 28.6659L58.7755 28.6408C59.4989 27.4679 60.0613 25.9727 59.8154 24.2233C59.7828 23.9887 59.7503 23.7362 59.7159 23.4694C59.6146 22.6779 59.4971 21.7755 59.3126 20.9177V20.9088L59.309 20.8998C58.4789 17.2003 57.9147 13.5671 57.9147 9.91061C57.9147 8.05729 57.6651 6.07325 56.7609 4.12144C54.7571 -0.303256 48.782 -1.45106 45.2845 2.08547L45.2772 2.09263L45.27 2.0998C44.3838 3.01124 43.6134 4.2629 43.2753 5.55933V5.5647C42.8702 7.13331 42.7056 8.72341 42.6785 10.2598C42.5826 14.1043 41.9189 17.922 41.0798 21.8363C40.6928 23.6252 40.2985 26.0927 41.7109 28.494C42.1757 29.2998 42.7128 30.0483 43.1957 30.7019L43.1993 30.7054C43.3711 30.9382 43.4742 31.1012 43.5321 31.2122C43.4633 31.3053 43.3494 31.4396 43.1686 31.624C41.6495 33.1282 39.7831 35.157 39.3997 38.1205C39.2858 38.937 39.2297 39.7769 39.2297 40.5898C39.2225 41.8612 39.2207 43.1325 39.2207 44.4039C40.8682 45.7003 42.3963 47.0236 43.8106 48.3684C43.8069 45.7809 43.8033 43.197 43.8178 40.6077V40.6024V40.597C43.8178 39.981 43.8612 39.3417 43.9462 38.7293V38.7168L43.9498 38.7043C44.1198 37.3738 44.9445 36.2905 46.4202 34.8293L46.4274 34.8221L46.4346 34.815C47.2177 34.0271 48.0767 32.9527 48.1689 31.5094C48.2594 30.0823 47.5559 28.9076 46.8994 28.0212C46.4346 27.3909 46.0241 26.809 45.6914 26.2324L45.6859 26.2234L45.6805 26.2145C45.2013 25.4033 45.2067 24.4614 45.5684 22.789V22.7854C46.4274 18.7833 47.1634 14.6361 47.2683 10.3672V10.3601V10.3529C47.2918 9.07259 47.4275 7.8442 47.7222 6.6946C47.8362 6.26127 48.1599 5.68826 48.5704 5.26387C49.7712 4.05877 51.8799 4.44197 52.5779 5.99267L52.5834 6.0052L52.5888 6.01774C53.1295 7.18166 53.3285 8.46019 53.3285 9.91777C53.3285 14.0273 53.9614 18.0133 54.8313 21.8847C54.9723 22.5383 55.0519 23.1543 55.1441 23.8777C55.1839 24.1821 55.2255 24.5044 55.2743 24.8572C55.3268 25.2314 55.2418 25.6594 54.8783 26.2557C54.6956 26.535 54.4822 26.852 54.258 27.1868C53.9072 27.7079 53.5328 28.2648 53.2091 28.7733C52.766 29.4627 52.2994 30.3974 52.3754 31.5345C52.4514 32.6644 53.0319 33.5257 53.5473 34.1453C54.0374 34.7433 54.5654 35.2931 55.0573 35.7801C56.2636 37.0354 56.7916 38.4231 56.7555 40.1833V40.1905C56.7048 42.9714 56.7211 45.7755 56.7392 48.5475C56.7482 49.9173 56.7555 51.2818 56.7555 52.6284V60.1258C56.7555 61.3811 56.7609 62.6363 56.7681 63.8826V63.8862C56.7736 65.1361 56.7808 66.3806 56.7808 67.6233V75.1709C56.7808 76.4261 56.7862 77.6706 56.7934 78.9026V78.9097C56.7989 80.1435 56.8061 81.3665 56.8061 82.5949C56.8061 85.4922 56.8061 88.3787 56.7808 91.2616V91.2706V94.5564C56.779 94.5564 56.7772 94.5564 56.7736 94.56C56.3323 94.7462 56.0863 94.8519 55.7825 94.9002C54.7861 95.0399 53.8059 95.1366 52.7045 95.2404C51.983 96.9595 51.2614 98.4475 50.6266 99.6544L50.6628 100C51.3247 99.932 51.9703 99.8729 52.5996 99.8138C53.9433 99.6884 55.2201 99.5702 56.4498 99.3966H56.4643L56.4788 99.3912C57.4156 99.2461 58.4102 98.82 58.9871 98.5728C59.1101 98.5191 59.215 98.4744 59.2945 98.4421C59.9691 98.1789 60.546 97.7116 60.9222 97.0615C61.2766 96.4456 61.3688 95.8135 61.3688 95.3157V91.2921C61.3942 88.3912 61.3942 85.4904 61.3942 82.6021V82.5949C61.3942 81.3558 61.3887 80.122 61.3815 78.8936H61.3743Z" fill="#EA552F"/>
<path d="M112.429 39.2092H118.944V65.5587H112.429V62.787C111.155 64.0087 109.881 64.9022 108.607 65.4492C107.333 65.9781 105.931 66.2516 104.439 66.2516C101.09 66.2516 98.1961 64.9387 95.7573 62.2946C93.3184 59.6505 92.0808 56.3683 92.0808 52.466C92.0808 48.5637 93.2638 45.0626 95.6299 42.455C97.9959 39.8656 100.872 38.5527 104.239 38.5527C105.786 38.5527 107.26 38.8627 108.607 39.4462C109.972 40.048 111.227 40.9415 112.392 42.1268V39.2274L112.429 39.191V39.2092ZM105.585 44.625C103.583 44.625 101.891 45.3361 100.562 46.7949C99.2335 48.2537 98.5601 50.0954 98.5601 52.3566C98.5601 54.6177 99.2335 56.5141 100.58 57.9729C101.945 59.4317 103.602 60.1794 105.585 60.1794C107.569 60.1794 109.316 59.4682 110.681 58.0094C112.028 56.5506 112.702 54.6724 112.702 52.3201C112.702 49.9678 112.028 48.1625 110.681 46.7402C109.335 45.3179 107.642 44.6067 105.567 44.6067L105.585 44.625Z" fill="white"/>
<path d="M125.46 39.2092H131.976V42.2362C133.086 40.9962 134.323 40.0662 135.688 39.4645C137.035 38.8627 138.528 38.5527 140.129 38.5527C141.731 38.5527 143.205 38.9539 144.516 39.7562C145.826 40.5586 146.863 41.7438 147.664 43.2756C148.702 41.7256 149.957 40.5403 151.468 39.7562C152.979 38.9539 154.598 38.5527 156.382 38.5527C158.166 38.5527 159.84 38.9904 161.242 39.8656C162.643 40.7409 163.644 41.8897 164.263 43.2938C164.863 44.6979 165.173 46.9955 165.173 50.1501V65.6134H158.621V52.2472C158.621 49.2566 158.257 47.2326 157.529 46.1932C156.801 45.1355 155.709 44.6067 154.234 44.6067C153.124 44.6067 152.141 44.935 151.25 45.5732C150.358 46.2114 149.703 47.1231 149.284 48.2537C148.865 49.4025 148.647 51.2078 148.647 53.7424V65.6316H142.095V52.8671C142.095 50.5148 141.931 48.8008 141.585 47.7431C141.239 46.6855 140.73 45.9014 140.038 45.3726C139.347 44.862 138.528 44.5885 137.545 44.5885C136.471 44.5885 135.47 44.9167 134.596 45.5732C133.705 46.2296 133.049 47.1414 132.613 48.3267C132.176 49.4937 131.957 51.3719 131.957 53.9065V65.6134H125.442V39.2639L125.46 39.2092Z" fill="white"/>
<path d="M177.858 39.2106V42.1099C179.042 40.9247 180.316 40.0129 181.662 39.4294C183.027 38.8276 184.502 38.5359 186.049 38.5359C189.434 38.5359 192.309 39.8306 194.675 42.4382C197.042 45.0275 198.225 48.3645 198.225 52.4491C198.225 56.5338 197.005 59.6519 194.548 62.2778C192.091 64.9218 189.197 66.2347 185.848 66.2347C184.356 66.2347 182.973 65.9612 181.662 65.4324C180.388 64.9036 179.096 64.0101 177.822 62.7701V75.1881H171.361V39.2106H177.84H177.858ZM184.702 44.6264C182.645 44.6264 180.953 45.3375 179.606 46.7598C178.241 48.1822 177.585 50.0421 177.585 52.3397C177.585 54.6373 178.259 56.5702 179.606 58.029C180.953 59.4878 182.645 60.199 184.702 60.199C186.758 60.199 188.36 59.4696 189.725 57.9926C191.09 56.5338 191.763 54.6556 191.763 52.3762C191.763 50.0968 191.09 48.2733 189.761 46.8145C188.415 45.3557 186.74 44.6446 184.702 44.6446V44.6264Z" fill="white"/>
<path d="M203.612 39.2102H210.2V51.9017C210.2 54.3817 210.364 56.0775 210.71 57.044C211.037 58.0104 211.583 58.758 212.33 59.2869C213.076 59.8157 213.968 60.0892 215.078 60.0892C216.188 60.0892 217.08 59.8339 217.844 59.2869C218.609 58.7763 219.155 57.9922 219.537 56.9893C219.81 56.2234 219.956 54.6005 219.956 52.1205V39.2102H226.471V50.37C226.471 54.9652 226.125 58.1198 225.397 59.8157C224.524 61.8762 223.232 63.4627 221.539 64.575C219.828 65.6691 217.681 66.2344 215.06 66.2344C212.202 66.2344 209.909 65.5961 208.162 64.3015C206.415 63.0068 205.177 61.2198 204.449 58.9039C203.939 57.2992 203.685 54.3999 203.685 50.1876V39.2284H203.648L203.612 39.2102Z" fill="white"/>
<path d="M232.204 29.0356H238.72V65.5602H232.204V29.0356Z" fill="white"/>
<path d="M243.907 29.0356H250.423V65.5602H243.907V29.0356Z" fill="white"/>
<path d="M275.484 39.2092H282V65.5587H275.484V62.787C274.21 64.0087 272.936 64.9022 271.662 65.4492C270.388 65.9781 268.987 66.2516 267.494 66.2516C264.146 66.2516 261.252 64.9387 258.813 62.2946C256.374 59.6505 255.137 56.3683 255.137 52.466C255.137 48.5637 256.32 45.0626 258.686 42.455C261.052 39.8656 263.927 38.5527 267.294 38.5527C268.841 38.5527 270.316 38.8627 271.662 39.4462C273.027 40.048 274.283 40.9415 275.448 42.1268V39.2274L275.484 39.191V39.2092ZM268.641 44.625C266.621 44.625 264.946 45.3361 263.618 46.7949C262.289 48.2537 261.616 50.0954 261.616 52.3566C261.616 54.6177 262.289 56.5141 263.636 57.9729C265.001 59.4317 266.657 60.1794 268.641 60.1794C270.625 60.1794 272.372 59.4682 273.737 58.0094C275.084 56.5506 275.757 54.6724 275.757 52.3201C275.757 49.9678 275.084 48.1625 273.737 46.7402C272.39 45.3179 270.698 44.6067 268.623 44.6067L268.641 44.625Z" fill="white"/>
</svg>
