<svg width="147" height="53" viewBox="0 0 147 53" fill="none" xmlns="http://www.w3.org/2000/svg">
<path d="M0.770558 34.789C0.82712 34.7797 2.17141 34.5683 4.15203 34.5683C7.49956 34.5683 12.3347 35.1587 16.3553 37.9698C22.5064 42.2718 24.2985 50.0936 24.5408 51.2892C26.3347 48.0032 30.2243 39.1021 25.1837 30.9004C18.8535 20.5999 0.838432 15.3025 0.838432 15.3025C0.838432 15.3025 -0.982867 25.3954 0.74322 34.7936L0.770558 34.789Z" fill="#49A54C"/>
<path d="M22.712 51.7623C22.712 51.7623 21.2404 43.6695 15.2646 39.4895C11.5985 36.926 7.08954 36.4297 4.15114 36.4297C2.52686 36.4297 1.38337 36.5815 1.12695 36.6178C1.72934 39.1394 2.62019 41.5567 3.90887 43.6537C6.3203 47.5785 9.77718 49.8105 13.1313 51.0713C15.5173 51.7772 17.8608 51.9587 19.6331 51.9587C21.4054 51.9587 22.712 51.7623 22.712 51.7623Z" fill="#49A54C"/>
<path fill-rule="evenodd" clip-rule="evenodd" d="M31.9929 41.0259V41.0194C31.99 40.3769 31.9863 39.7372 31.9863 39.09V35.1651C31.9863 34.5124 31.9834 33.8596 31.9797 33.2115V33.2097C31.9768 32.5597 31.9731 31.9126 31.9731 31.2663V27.3676C31.9731 26.6357 31.9683 25.9121 31.9646 25.1923C31.9561 23.7695 31.9476 22.3625 31.9731 20.9434C32.0051 19.4182 31.5017 18.0838 30.4167 16.9636L30.4072 16.9543L30.3978 16.945C30.1631 16.7132 29.9481 16.4887 29.7653 16.2653L29.7615 16.2606L29.7577 16.256C29.753 16.2504 29.7483 16.2448 29.7445 16.2392C29.7473 16.2345 29.7502 16.2299 29.753 16.2252L29.7549 16.2224L29.7568 16.2196C29.9227 15.9589 30.0726 15.7373 30.2309 15.5036C30.3526 15.3239 30.4789 15.1376 30.6212 14.9197L30.6297 14.9067L30.6382 14.8937C31.0153 14.2837 31.3085 13.5062 31.1802 12.5965C31.1633 12.4745 31.1463 12.3432 31.1284 12.2045C31.0756 11.7929 31.0143 11.3236 30.9182 10.8775V10.8729L30.9163 10.8682C30.4836 8.94444 30.1895 7.05511 30.1895 5.15367C30.1895 4.18991 30.0594 3.15818 29.588 2.14321C28.5435 -0.157698 25.4288 -0.754575 23.6056 1.08448L23.6019 1.0882L23.5981 1.09193C23.1362 1.56589 22.7346 2.21677 22.5583 2.89094V2.89373C22.3471 3.70943 22.2613 4.53631 22.2472 5.33525C22.1972 7.33446 21.8513 9.3197 21.4139 11.3552C21.2121 12.2855 21.0066 13.5686 21.7429 14.8173C21.9851 15.2363 22.2651 15.6256 22.5168 15.9654L22.5187 15.9673C22.6083 16.0883 22.662 16.1731 22.6922 16.2308C22.6563 16.2792 22.597 16.3491 22.5027 16.445C21.7108 17.2272 20.7379 18.2822 20.5381 19.8232C20.4787 20.2479 20.4495 20.6846 20.4495 21.1073C20.4457 21.7685 20.4448 22.4296 20.4448 23.0907C21.3036 23.7649 22.1001 24.453 22.8373 25.1523C22.8355 23.8068 22.8336 22.4631 22.8411 21.1166V21.1138V21.1111C22.8411 20.7907 22.8637 20.4583 22.908 20.1398V20.1333L22.9099 20.1268C22.9985 19.435 23.4284 18.8716 24.1977 18.1118L24.2014 18.108L24.2052 18.1043C24.6134 17.6946 25.0612 17.1359 25.1092 16.3854C25.1564 15.6432 24.7897 15.0324 24.4475 14.5715C24.2052 14.2437 23.9912 13.9411 23.8177 13.6412L23.8149 13.6366L23.8121 13.6319C23.5623 13.2101 23.5651 12.7203 23.7536 11.8506V11.8487C24.2014 9.76759 24.5851 7.61101 24.6398 5.39112V5.38739V5.38367C24.652 4.71788 24.7227 4.0791 24.8764 3.4813C24.9358 3.25595 25.1045 2.95798 25.3185 2.7373C25.9445 2.11062 27.0437 2.30989 27.4076 3.11628L27.4104 3.1228L27.4132 3.12932C27.6951 3.73457 27.7988 4.39943 27.7988 5.15739C27.7988 7.29442 28.1287 9.36719 28.5822 11.3804C28.6557 11.7202 28.6972 12.0406 28.7452 12.4168C28.766 12.5751 28.7877 12.7427 28.8131 12.9261C28.8405 13.1207 28.7962 13.3433 28.6067 13.6533C28.5115 13.7986 28.4002 13.9634 28.2833 14.1376C28.1004 14.4085 27.9053 14.6981 27.7366 14.9626C27.5056 15.3211 27.2624 15.8071 27.302 16.3984C27.3416 16.986 27.6442 17.4339 27.9128 17.7561C28.1683 18.0671 28.4436 18.3529 28.7 18.6062C29.3288 19.259 29.604 19.9806 29.5852 20.896V20.8997C29.5588 22.3458 29.5673 23.804 29.5767 25.2454C29.5814 25.9578 29.5852 26.6673 29.5852 27.3676V31.2663C29.5852 31.9191 29.588 32.5718 29.5918 33.2199V33.2218C29.5946 33.8717 29.5984 34.5189 29.5984 35.1651V39.09C29.5984 39.7427 29.6012 40.3899 29.605 41.0305V41.0343C29.6078 41.6758 29.6116 42.3118 29.6116 42.9506C29.6116 44.4572 29.6116 45.9583 29.5984 47.4574V47.4621V49.1708C29.5975 49.1708 29.5965 49.1708 29.5946 49.1726C29.3646 49.2695 29.2364 49.3244 29.078 49.3496C28.5586 49.4222 28.0477 49.4725 27.4735 49.5265C27.0974 50.4204 26.7213 51.1942 26.3904 51.8218L26.4092 52.0015C26.7543 51.9661 27.0908 51.9354 27.4189 51.9047C28.1193 51.8395 28.7848 51.778 29.4259 51.6877H29.4334L29.441 51.6849C29.9293 51.6095 30.4478 51.3879 30.7485 51.2594C30.8126 51.2315 30.8673 51.2082 30.9087 51.1914C31.2604 51.0545 31.5611 50.8115 31.7572 50.4735C31.942 50.1532 31.99 49.8245 31.99 49.5656V47.4733C32.0032 45.9648 32.0032 44.4563 32.0032 42.9543V42.9506C32.0032 42.3062 32.0004 41.6647 31.9966 41.0259H31.9929Z" fill="#EA552F"/>
<path d="M58.6062 19.8697H62.0027V33.5718H58.6062V32.1305C57.9421 32.7658 57.278 33.2304 56.6139 33.5149C55.9498 33.7899 55.2192 33.9321 54.4413 33.9321C52.6956 33.9321 51.1871 33.2494 49.9158 31.8745C48.6445 30.4995 47.9994 28.7927 47.9994 26.7634C47.9994 24.7342 48.6161 22.9136 49.8494 21.5576C51.0828 20.2111 52.5818 19.5283 54.3369 19.5283C55.1433 19.5283 55.9118 19.6895 56.6139 19.993C57.3254 20.3059 57.98 20.7705 58.5872 21.3869V19.8792L58.6062 19.8602V19.8697ZM55.039 22.686C53.9954 22.686 53.1131 23.0558 52.4205 23.8144C51.7279 24.573 51.3769 25.5307 51.3769 26.7065C51.3769 27.8823 51.7279 28.8685 52.43 29.6271C53.1415 30.3857 54.0049 30.7745 55.039 30.7745C56.0731 30.7745 56.9839 30.4047 57.6954 29.6461C58.3975 28.8875 58.7485 27.9108 58.7485 26.6876C58.7485 25.4643 58.3975 24.5256 57.6954 23.7859C56.9934 23.0463 56.111 22.6765 55.0295 22.6765L55.039 22.686Z" fill="#1C1F22"/>
<path d="M65.399 19.8697H68.7955V21.4438C69.3742 20.799 70.0193 20.3154 70.7309 20.0024C71.4329 19.6895 72.2109 19.5283 73.0458 19.5283C73.8807 19.5283 74.6491 19.7369 75.3322 20.1542C76.0153 20.5714 76.5561 21.1877 76.9735 21.9843C77.5143 21.1783 78.1689 20.5619 78.9564 20.1542C79.7438 19.7369 80.5882 19.5283 81.5179 19.5283C82.4477 19.5283 83.3205 19.7559 84.0511 20.2111C84.7816 20.6662 85.3034 21.2636 85.6259 21.9938C85.939 22.7239 86.1003 23.9187 86.1003 25.5592V33.6003H82.6849V26.6496C82.6849 25.0945 82.4951 24.042 82.1156 23.5015C81.7362 22.9515 81.1669 22.6765 80.3984 22.6765C79.8197 22.6765 79.3074 22.8472 78.8425 23.1791C78.3776 23.5109 78.0361 23.9851 77.8179 24.573C77.5997 25.1704 77.4858 26.1091 77.4858 27.4272V33.6097H74.0704V26.972C74.0704 25.7488 73.985 24.8575 73.8048 24.3075C73.6245 23.7575 73.3589 23.3497 72.9983 23.0748C72.6378 22.8092 72.2109 22.667 71.6986 22.667C71.1388 22.667 70.617 22.8377 70.1616 23.1791C69.6968 23.5204 69.3552 23.9945 69.1275 24.6109C68.8998 25.2178 68.786 26.1945 68.786 27.5125V33.6003H65.3895V19.8981L65.399 19.8697Z" fill="#1C1F22"/>
<path d="M92.7131 19.8699V21.3776C93.3298 20.7612 93.9939 20.2871 94.696 19.9837C95.4075 19.6708 96.176 19.519 96.9824 19.519C98.7471 19.519 100.246 20.1923 101.479 21.5483C102.713 22.8948 103.329 24.6301 103.329 26.7541C103.329 28.8782 102.694 30.4997 101.413 31.8652C100.132 33.2401 98.6237 33.9229 96.8781 33.9229C96.1001 33.9229 95.3791 33.7806 94.696 33.5056C94.0319 33.2307 93.3583 32.766 92.6942 32.1212V38.5787H89.3262V19.8699H92.7037H92.7131ZM96.2804 22.6862C95.2083 22.6862 94.326 23.056 93.6239 23.7956C92.9124 24.5353 92.5708 25.5025 92.5708 26.6973C92.5708 27.892 92.9219 28.8972 93.6239 29.6558C94.326 30.4144 95.2083 30.7842 96.2804 30.7842C97.3524 30.7842 98.1873 30.4049 98.8989 29.6368C99.6104 28.8782 99.9614 27.9015 99.9614 26.7162C99.9614 25.5309 99.6104 24.5827 98.9178 23.8241C98.2158 23.0655 97.3429 22.6957 96.2804 22.6957V22.6862Z" fill="#1C1F22"/>
<path d="M106.138 19.8696H109.572V26.4694C109.572 27.759 109.657 28.6409 109.838 29.1435C110.008 29.646 110.293 30.0348 110.682 30.3098C111.071 30.5848 111.536 30.727 112.115 30.727C112.693 30.727 113.158 30.5943 113.557 30.3098C113.955 30.0443 114.24 29.6365 114.439 29.115C114.581 28.7167 114.657 27.8728 114.657 26.5832V19.8696H118.054V25.6729C118.054 28.0625 117.873 29.7029 117.494 30.5848C117.038 31.6563 116.365 32.4813 115.483 33.0597C114.591 33.6286 113.471 33.9226 112.105 33.9226C110.616 33.9226 109.42 33.5907 108.509 32.9175C107.599 32.2442 106.953 31.3149 106.574 30.1107C106.308 29.2762 106.176 27.7685 106.176 25.5781V19.8791H106.157L106.138 19.8696Z" fill="#1C1F22"/>
<path d="M121.042 14.5786H124.439V33.5719H121.042V14.5786Z" fill="#1C1F22"/>
<path d="M127.143 14.5786H130.539V33.5719H127.143V14.5786Z" fill="#1C1F22"/>
<path d="M143.603 19.8697H146.999V33.5718H143.603V32.1305C142.939 32.7658 142.275 33.2304 141.611 33.5149C140.946 33.7899 140.216 33.9321 139.438 33.9321C137.692 33.9321 136.184 33.2494 134.913 31.8745C133.641 30.4995 132.996 28.7927 132.996 26.7634C132.996 24.7342 133.613 22.9136 134.846 21.5576C136.079 20.2111 137.578 19.5283 139.334 19.5283C140.14 19.5283 140.909 19.6895 141.611 19.993C142.322 20.3059 142.977 20.7705 143.584 21.3869V19.8792L143.603 19.8602V19.8697ZM140.036 22.686C138.983 22.686 138.11 23.0558 137.417 23.8144C136.725 24.573 136.374 25.5307 136.374 26.7065C136.374 27.8823 136.725 28.8685 137.427 29.6271C138.138 30.3857 139.002 30.7745 140.036 30.7745C141.07 30.7745 141.981 30.4047 142.692 29.6461C143.394 28.8875 143.745 27.9108 143.745 26.6876C143.745 25.4643 143.394 24.5256 142.692 23.7859C141.99 23.0463 141.108 22.6765 140.026 22.6765L140.036 22.686Z" fill="#1C1F22"/>
</svg>
