<svg width="24" height="24" viewBox="0 0 24 24" fill="none" xmlns="http://www.w3.org/2000/svg">
<g clip-path="url(#clip0_2_1995)">
<path d="M12.9995 1.00086C12.9995 0.735648 13.1048 0.481294 13.2924 0.293758C13.4799 0.106221 13.7343 0.000864546 13.9995 0.000864546C16.6507 0.00377614 19.1926 1.05828 21.0673 2.93301C22.9421 4.80775 23.9966 7.34959 23.9995 10.0009C23.9995 10.2661 23.8941 10.5204 23.7066 10.708C23.519 10.8955 23.2647 11.0009 22.9995 11.0009C22.7343 11.0009 22.4799 10.8955 22.2924 10.708C22.1048 10.5204 21.9995 10.2661 21.9995 10.0009C21.9971 7.87987 21.1535 5.84642 19.6537 4.34664C18.1539 2.84687 16.1205 2.00325 13.9995 2.00086C13.7343 2.00086 13.4799 1.89551 13.2924 1.70797C13.1048 1.52044 12.9995 1.26608 12.9995 1.00086ZM13.9995 6.00087C15.0603 6.00087 16.0778 6.42229 16.8279 7.17244C17.578 7.92258 17.9995 8.94 17.9995 10.0009C17.9995 10.2661 18.1048 10.5204 18.2924 10.708C18.4799 10.8955 18.7343 11.0009 18.9995 11.0009C19.2647 11.0009 19.519 10.8955 19.7066 10.708C19.8941 10.5204 19.9995 10.2661 19.9995 10.0009C19.9979 8.41005 19.3652 6.88485 18.2404 5.75998C17.1155 4.6351 15.5903 4.00245 13.9995 4.00086C13.7343 4.00086 13.4799 4.10622 13.2924 4.29376C13.1048 4.48129 12.9995 4.73565 12.9995 5.00086C12.9995 5.26608 13.1048 5.52044 13.2924 5.70797C13.4799 5.89551 13.7343 6.00087 13.9995 6.00087ZM23.0925 16.7399C23.672 17.321 23.9974 18.1082 23.9974 18.9289C23.9974 19.7496 23.672 20.5368 23.0925 21.1179L22.1825 22.1669C13.9925 30.0079 -5.9375 10.0829 1.7825 1.86686L2.93249 0.866865C3.51426 0.303542 4.29442 -0.00808638 5.1042 -0.000600612C5.91397 0.00688515 6.68823 0.332883 7.25949 0.906865C7.29049 0.937865 9.14349 3.34487 9.14349 3.34487C9.69332 3.92249 9.99939 4.68979 9.99809 5.48727C9.99678 6.28474 9.6882 7.05104 9.13649 7.62687L7.97849 9.08287C8.61934 10.64 9.56155 12.0551 10.751 13.247C11.9404 14.4388 13.3537 15.3839 14.9095 16.0279L16.3745 14.8629C16.9504 14.3116 17.7165 14.0034 18.5138 14.0022C19.311 14.0011 20.078 14.3072 20.6555 14.8569C20.6555 14.8569 23.0615 16.7089 23.0925 16.7399ZM21.7165 18.1939C21.7165 18.1939 19.3235 16.3529 19.2925 16.3219C19.0865 16.1176 18.8081 16.003 18.518 16.003C18.2279 16.003 17.9495 16.1176 17.7435 16.3219C17.7165 16.3499 15.6995 17.9569 15.6995 17.9569C15.5636 18.0651 15.4018 18.136 15.2301 18.1626C15.0585 18.1893 14.8828 18.1708 14.7205 18.1089C12.7049 17.3584 10.8742 16.1836 9.35232 14.6639C7.83042 13.1443 6.65289 11.3153 5.89949 9.30087C5.83269 9.13632 5.81091 8.95695 5.83639 8.7812C5.86188 8.60545 5.9337 8.43966 6.04449 8.30087C6.04449 8.30087 7.65149 6.28287 7.67849 6.25687C7.88276 6.05085 7.99737 5.77248 7.99737 5.48237C7.99737 5.19225 7.88276 4.91388 7.67849 4.70786C7.64749 4.67787 5.80649 2.28286 5.80649 2.28286C5.59739 2.09537 5.32449 1.99496 5.04374 2.00221C4.76298 2.00946 4.49563 2.12383 4.29649 2.32186L3.14649 3.32187C-2.4955 10.1059 14.7755 26.4189 20.7205 20.8009L21.6315 19.7509C21.845 19.5531 21.9732 19.2801 21.989 18.9896C22.0049 18.699 21.9072 18.4137 21.7165 18.1939Z" fill="#1C1F22"/>
</g>
<defs>
<clipPath id="clip0_2_1995">
<rect width="24" height="24" fill="white" transform="translate(-0.000488281 0.000732422)"/>
</clipPath>
</defs>
</svg>
