<svg width="22" height="22" viewBox="0 0 22 22" fill="none" xmlns="http://www.w3.org/2000/svg">
<path d="M10.5716 0.711861C10.7659 0.388951 11.2341 0.388951 11.4284 0.711861L14.8407 6.38191C14.9105 6.49792 15.0244 6.58065 15.1563 6.6112L21.6033 8.10434C21.9704 8.18937 22.1151 8.63461 21.868 8.91921L17.53 13.9166C17.4412 14.0189 17.3977 14.1527 17.4094 14.2876L17.9816 20.8805C18.0142 21.256 17.6354 21.5311 17.2884 21.3841L11.195 18.8026C11.0704 18.7498 10.9296 18.7498 10.805 18.8026L4.71158 21.3841C4.36457 21.5311 3.98583 21.256 4.01841 20.8805L4.59059 14.2876C4.60229 14.1527 4.5588 14.0189 4.47004 13.9166L0.131958 8.91921C-0.115096 8.63461 0.0295691 8.18937 0.396726 8.10434L6.84372 6.6112C6.97562 6.58065 7.08949 6.49792 7.15931 6.38191L10.5716 0.711861Z" fill="#F29E4C"/>
</svg>
